<?xml version="1.0" encoding="UTF-8"?>
<svg enable-background="new 0 0 1024 1024" version="1.1" viewBox="0 0 1024 1024" xml:space="preserve" xmlns="http://www.w3.org/2000/svg">
<path d="m915.95 497.17c-5.6213 1.0771-7.4219 4.5175-8.7227 9.5337-16.161 62.327-57.246 99.072-118.96 113.21-25.368 5.8124-50.922 2.3798-76.043-3.9797-18.733-4.7425-36.65-12.065-55.225-17.21-29.471-8.1623-59.391-11.519-89.754-5.3667-12.816 2.5967-23.659 8.8359-31.831 19.211-6.9987 8.8854-7.0241 18.716 0.20459 27.421 7.4133 8.9264 17.1 15.308 26.303 22.16 21.105 15.712 42.635 30.838 62.33 48.399 14.414 12.852 25.932 27.632 33.486 45.438 1.0495 2.4738 1.7665 4.8004 0.60089 7.6227-10.917 26.433-23.325 51.999-42.731 73.464-17.424 19.273-37.65 35.244-59.125 49.738-15.225 10.275-31.242 19.088-47.759 27.092-4.6521 2.2544-8.4523 2.3069-13.033-0.18628-28.233-15.365-56.715-30.276-84.881-45.762-31.976-17.58-64.707-33.676-97.245-50.147-46.51-23.543-93.14-46.851-139.85-69.998-17.752-8.7976-35.863-16.871-53.804-25.286-1.7918-0.84033-3.545-1.7631-5.4401-2.7095 0.51005-3.0134 2.9316-4.1973 4.6967-5.737 11.435-9.9747 23.296-19.419 36.268-27.342 3.629-2.2165 4.4841-4.3958 2.8013-8.5127-2.0621-5.0449-3.0712-10.515-4.6404-15.769-0.64061-2.1451-0.675-4.588-2.6754-6.5977-4.157 3.363-4.5196 9.0048-8.6299 12.926-32.667-65.178-32.745-131.28-7.9586-199.56-9.6725 1.9488-15.728 8.1593-24.14 11.21 6.7986-70.471 42.925-125.45 88.155-175.71-1.2837-2.1267-2.8967-1.4246-4.197-1.0861-15.967 4.1573-29.678 11.48-38.405 26.373-5.1313 8.7566-10.801 17.208-16.46 25.642-4.8057 7.1615-12.554 8.8836-20.688 4.9897-5.7027-2.7302-8.5399-10.902-6.0284-18.254 4.8871-14.306 13.041-26.929 20.839-39.724 7.2793-11.944 18.877-19.138 30.023-26.638 24.184-16.273 50.776-27.832 77.92-38.064 5.7805-2.179 9.4155-5.4236 12.352-10.596 10.695-18.84 21.63-37.61 36.728-53.368 16.795-17.529 36.176-30.696 60.826-34.923 20.711-3.551 40.376 0.39389 59.734 7.0809 6.5896 2.2762 13.024 5.141 19.251 8.2884 6.3996 3.2348 12.802 3.225 19.78 2.7572 14.414-0.96611 28.828-2.1655 43.376-0.94475 12.275 1.0301 24.419 2.6788 36.519 4.7841 2.2905 0.39853 3.8425-0.4599 5.5549-1.4701 14.566-8.593 30.232-14.102 47.144-14.787 30.884-1.2521 52.956 13.718 68.927 39.04 6.4326 10.199 10.959 21.321 14.666 32.742 1.2012 3.7015 2.9661 4.4238 6.5992 3.7822 19.24-3.3972 38.566-4.1416 58.128-2.9867 22.121 1.3059 43.921 4.4656 65.705 8.1852 4.6247 0.78966 6.6862 2.4354 6.4256 7.3455-0.35272 6.647-0.078553 13.326-0.11847 19.991-0.013061 2.1758 0.09607 4.7676-2.5388 5.4175-10.665 2.6306-12.247 10.658-13.067 19.97-1.7642 20.028-7.2164 39.178-15.433 57.534-0.53284 1.1903-0.896 2.4566-1.4269 3.9348 3.9409 0.47897 7.0046-1.5718 10.341-2.2592 12.304-2.5356 24.653-3.5978 37.173-2.0956 5.1224 0.61459 10.297 0.068817 15.448 0.88946 2.877 0.45828 5.1993-1.9669 7.6392-3.3192 9.4528-5.2394 19.222-8.3184 30.34-8.5066 23.339-0.39502 50.213 16.423 56.853 45.274 1.3436 5.8383 2.4171 11.747 2.0446 17.77-0.23193 3.7493 1.0107 6.5607 3.5499 9.3856 19.028 21.169 22.908 52.299 9.3417 75.586-6.3626 10.922-15.548 19.006-27.269 24.707m-308.8 60.152c13.034 1.6256 26.022 3.5024 38.832 6.5002 23.36 5.4666 45.766 14.128 68.901 20.375 32.589 8.7996 64.76 9.8545 96.17-4.3204 34.962-15.778 58.389-41.774 68.446-79.152 0.8147-3.028 2.3005-6.2876 0.41522-9.8439-13.052 1.0684-24.969 5.7392-36.8 10.642-10.767 4.4621-21.454 9.2583-32.966 11.362-4.0587 0.74176-5.8424 2.5779-7.4461 6.046-5.5242 11.947-13.822 21.536-25.453 27.973-3.5542 1.967-7.0485 3.4983-11.087 0.41455-11.904-9.0901-20.409-20.436-24.338-35.024-0.49048-1.8213-0.098266-4.5648-2.7278-4.704-2.3328-0.12341-2.2477 2.5041-2.887 4.0891-5.3389 13.239-13.768 23.808-26.18 31.145-6.0009 3.5472-11.271 2.8604-16.537-1.4296-10.336-8.4207-16.408-19.5-20.344-31.962-0.78888-2.498-0.95081-5.3061-4.742-5.3519-3.5632-0.042938-6.2696 0.42773-8.0225 4.2319-4.4426 9.6406-11.599 16.997-20.569 22.593-8.7288 5.4452-13.631 5.2034-21.699-1.0626-12.23-9.498-19.807-21.85-22.47-37.128-0.55463-3.1814-1.8178-5.4584-4.9789-6.8375-7.4789-3.2628-14.828-6.8223-22.248-10.221-2.2643-1.0373-4.5829-1.9717-7.6569-1.5592-3.7173 11.214-9.4534 21.334-18.908 29.113-14.396 11.845-19.128 11.501-32.186-3.1675-0.65826-0.73941-1.1472-1.6353-1.6779-2.4817-4.8339-7.7088-8.1639-15.972-9.521-25.025-0.27466-1.8323-0.087494-4.7254-2.5424-4.9054-4.2776-0.31369-8.6842-1.6059-12.444 2.6688-7.7087 8.764-17.279 14.98-28.291 19.064-8.1525 3.0231-15.552 2.2871-22.72-2.7111-6.0684-4.2312-12.084-8.7566-16.037-14.879-5.0945-7.8888-12.108-12.515-20.497-15.726-0.61978-0.23728-1.1839-0.61725-1.7989-0.87009-13.576-5.5819-25.351-14.69-39.232-19.74-21.213-7.7178-41.384-7.7407-59.985 6.8159-5.1935 4.0643-9.5206 9.0036-14.041 13.864 0.5463-22.21 9.3857-40.074 28.667-51.428 21.101-12.426 42.812-9.7278 64.193-0.062653 12.654 5.7203 23.891 13.896 35.567 21.266 19.009 11.999 39.259 18.338 61.992 16.992 15.982-0.94638 31.645-4.0131 47.505-5.6398 14.842-1.5224 29.606-1.0737 43.952 3.5685 18.32 5.9282 35.174 15.12 52.019 24.195 16.169 8.7112 32.836 14.298 51.527 12.79 8.1626-0.65866 16.103-2.3687 24.115-3.7318 13.021-2.2155 26.029-3.6609 39.171-1.333 10.253 1.8163 19.815 5.7325 29.097 10.266 15.768 7.7006 31.714 8.7862 48.405 2.9912 11.511-3.9967 22.499-9.181 33.798-13.646 20.663-8.1666 41.649-12.797 63.858-7.6061 7.8695 1.8391 8.978 1.3784 12.968-5.6568 0.89874-1.5849 1.7265-3.2552 2.2791-4.9845 5.9003-18.465 1.2666-34.453-11.826-48.199-2.8686-3.0117-5.1578-5.915-5.3834-10.227-0.18213-3.4809-0.69598-6.9477-1.1351-10.411-1.6409-12.943-6.5554-23.954-18.125-31.177-3.3522-2.0926-7.577-3.6145-10.66-2.7144-4.5436 1.3265-9.2654 2.4047-13.743 4.251-9.4742 3.9066-11.833 9.2063-7.4745 18.207 3.4369 7.0976 6.3052 14.402 7.8216 22.459-2.14-0.31967-2.4868-1.8052-3.2722-2.7789-17.513-21.714-39.423-34.656-68.09-33.136-22.432 1.1894-39.279 11.674-46.219 32.562-0.85126 2.5622-1.371 5.4499-3.996 7.9896-1.827-4.6611-1.1256-8.8718-0.77179-13.102 0.2226-2.6616 3.0449-5.7825 0.25299-7.8812-2.8996-2.1797-6.0453 0.26303-8.8299 1.6191-2.2364 1.0891-4.2902 2.5527-6.4263 3.8481-3.3472 2.0298-5.8964 5.2382-9.8115 6.9556-1.3093-4.4303 0.78241-7.7964 2.4186-11.135 3.9514-8.0632 10.153-14.384 16.53-20.519 1.5151-1.4574 2.6728-2.7886 2.1624-5.149-0.57044-2.6381-2.6073-2.0577-4.3049-2.382-15.837-3.0256-31.662-6.0154-47.197-10.508-6.8629-1.9845-13.66-4.8542-21.257-4.0255-2.8673 0.31278-5.9105 0.035279-8.9013 0.23428-8.9541 0.59567-15.006-4.468-19.85-11.16-3.0739-4.2469-5.4495-9.0731-8.4954-13.259-3.5505-4.8795-7.3422-9.6418-9.3001-15.254-1.7528-5.0239-5.0831-6.5043-9.6271-7.0884-2.504-0.32187-4.9629-0.19067-7.4521 0.13617-5.7432 0.75406-8.2426 3.4224-8.1266 9.14 0.047241 2.3331-0.3252 4.3547-2.4462 5.6081-2.2072 1.3043-4.8951 0.6734-5.9623-0.93884-3.0153-4.555-7.1018-3.3611-10.854-2.4205-5.803 1.4545-10.995 4.6284-13.144 10.389-4.7844 12.822-10.261 25.271-17.163 37.093-11.579 19.829-27.789 33.633-50.853 37.7-23.474 4.1398-46.999 4.05-70.374-1.235-24.338-5.5025-43.556-17.242-51.884-42.359-0.41302-1.2458-1.0022-2.5395-2.5458-2.835-5.5406-1.0608-7.5742-5.4687-9.6017-9.9386-4.3985-9.697-8.8925-19.351-13.254-29.064-1.8669-4.1573-5.2377-6.5271-9.3355-7.6865-6.4614-1.8282-13.095-2.3646-19.774-1.1485-1.6625 0.3027-3.3119 0.89075-5.3485-0.12918 4.6766-3.0586 10.325 0.39685 14.477-3.8925 3.8661-3.9942 6.0565-7.8276 3.8383-12.611-6.9795-4.2181-13.742-2.5045-20.606-1.1614-11.927 2.3338-23.77 5.0099-35.454 8.3292-10.393 2.9526-21.352 4.4309-29.454 12.989-7.1122 7.5126-9.3431 9.1863-1.098 14.149 0.16202 0.097535 0.10507 0.55887 0.16405 0.9393-0.521 0.34866-1.0343 0.79846-1.6285 1.0731-4.6848 2.1649-9.3383 4.4085-14.1 6.3909-2.4061 1.0017-4.3282 2.4047-5.8175 4.4972-19.449 27.326-37.164 55.67-50.52 86.545-1.0557 2.4405-3.8647 5.6107-1.4766 7.6797 2.4098 2.0877 4.8317-1.6824 7.3581-2.5919 4.082-1.4696 7.2015-5.0837 11.596-6.0211 1.2376 2.6972 0.11337 4.4912-0.57555 6.3173-17.044 45.177-25.526 91.863-25.048 140.19 0.054642 5.5272 2.5664 9.4305 5.1906 13.039 7.3238-0.52081 9.5039-7.6686 15.458-11.054 0.14003 2.5919 0.44705 4.2329 0.28055 5.8245-1.4827 14.173-0.31142 28.249 1.3161 42.323 5.1272 44.337 24.4 80.743 59.995 108.27 28.572 22.095 60.035 39.556 91.068 57.731 3.9509 2.314 8.0562 2.6173 12.452 1.6033 6.5875-1.5199 8.1544-6.2632 3.4888-11.302-11.881-12.832-24.31-25.136-35.868-38.287-30.848-35.101-50.562-75.538-59.997-121.26-1.6307-7.9029-0.16911-16.859-6.3746-23.615-0.3333-0.36292-0.33273-1.3561-0.093154-1.8731 3.7195-8.0275 1.0279-16.388 1.3425-24.587 0.15225-3.9682-1.771-6.7872-4.547-9.5233-16.988-16.744-30.211-35.892-36.751-59.14-1.8448-6.5584-2.4809-13.662-5.4337-19.645-2.8741-5.8241-3.835-11.498-2.2337-17.214 1.3973-4.9872 1.6816-10.013 2.6312-14.986 3.9164-20.51 11.715-39.547 22.783-57.21 4.5989-7.3391 9.3673-14.629 16.295-20.94 0 1.0843 0.091537 1.4379-0.017456 1.7117-0.30676 0.77045-0.68894 1.5115-1.0538 2.2581-13.779 28.197-18.857 57.797-13.319 88.792 4.8734 27.272 18.173 50.296 37.933 69.462 35.848 34.771 80.268 49.051 128.86 53.056 17.47 1.4398 34.939 1.2579 52.398-0.049988 12.932-0.96869 25.865-1.98 38.767-3.2785 13.555-1.3643 27.07-3.1304 40.61-4.6533 16.133-1.8147 32.274-3.5576 48.434-5.334-1.3688-5.5168-6.5448-3.9166-10.463-5.5418 7.8556-1.8296 16.381 0.15857 21.861 5.0355 0.30182-2.6457 1.5734-3.1723 4.181-3.2123 6.6658-0.10236 12.689 2.6314 19.94 3.6783m-156.72 280.77c14.162 16.154 27.964 32.624 42.763 48.219 2.977 3.1369 5.3256 3.2924 8.9478 1.0449 22.982-14.259 42.89-32.049 61-52.018 3.5309-3.8932 5.5691-7.8822 5.6398-13.272 0.22607-17.218 0.67261-34.339-8.889-49.877-2.2767-3.6998-3.9939-4.6955-8.1528-2.8662-20.367 8.9586-41.982 12.847-64.018 13.812-29.614 1.2963-58.759-2.5031-87.38-10.242-1.8577-0.50232-3.7473-1.3522-6.2464 0.68561 18.733 21.446 37.305 42.709 56.336 64.514m-82.657-93.271c1.1437 0.65814 2.2231 1.485 3.4409 1.9487 13.897 5.2903 28.346 8.637 42.982 10.759 20.764 3.0104 41.633 4.1265 62.672 2.3367 19.03-1.6188 37.491-5.304 55.321-12.073 9.2535-3.5132 9.3585-4.5332 2.814-12.067-13.566-15.617-29.592-28.243-47.249-38.847-3.1611-1.8986-6.237-4.4025-10.605-3.3832-11.675 2.7244-23.516 4.2004-35.495 5.1281-18.532 1.4353-36.936 0.30115-55.285-1.7976-19.851-2.2706-39.335-6.5627-58.493-12.308-1.5051-0.45136-3.6144-1.897-4.9818 0.2973-1.1219 1.8003 0.53836 3.1498 1.3858 4.4625 12.675 19.634 26.661 38.249 43.493 55.544m382.84-418.72c2.7298-4.0186 4.8224-8.3652 6.4376-12.928 6.6151-18.689 10.334-37.776 7.606-57.693-0.91797-6.7018-4.0981-11.581-11.244-12.843-4.7366-0.83672-9.4763-1.7882-14.257-2.221-17.591-1.5926-35.208-1.8652-52.802-0.065201-16.407 1.6785-32.114 5.5169-45.629 15.676-4.5605 3.4282-7.567 7.7888-8.6459 13.503-1.817 9.6231-0.64124 18.877 3.3228 27.744 1.5944 3.567 3.5568 7.045 8.1692 9.3088-5.0319-13.117-9.7164-25.829-2.4663-38.53 7.2677-12.732 20.344-15.965 33.757-18.959 0.59119 2.2138 1.1365 3.7716 1.4151 5.3757 2.3215 13.363 1.1932 26.537-2.9031 39.377-1.4257 4.4687-0.39172 6.9594 3.3884 9.5074 18.962 12.781 39.526 21.812 61.608 27.673 5.4119 1.4364 9.3214 1.0543 12.242-4.9259m-382.32-115.36c11.202 1.6287 22.244 4.0742 32.953 7.6816 3.6533 1.2306 7.17 1.5929 10.756 1.146 15.571-1.9404 31.207-2.0077 46.848-1.8323 4.1458 0.046463 7.7414-0.76134 11.211-3.168 5.0708-3.5169 5.172-6.0238-0.24872-8.9971-7.2911-3.9992-14.591-7.9882-21.983-11.796-21.041-10.838-42.531-20.534-66.005-24.923-19.46-3.6381-37.724-1.0078-54.256 10.551-12.023 8.4063-21.679 19.111-30.193 30.929-4.1838 5.8066-8.2307 11.71-11.434 18.134-1.7507 3.5112-3.0619 7.431-0.58551 10.821 2.6102 3.5735 6.3214 4.2666 10.916 2.7741 6.2935-2.0442 13.083-2.6047 19.312-4.7907 5.702-2.0009 13.469-0.089096 16.555-7.8103 0.13046-0.32652 1.2336-0.51035 1.7965-0.3811 8.3134 1.9088 16.123-1.1542 24.052-2.5722 6.2769-1.1225 6.9625-4.0315 2.7188-8.7817-1.1083-1.2405-2.4606-1.6077-4.0007-1.6692-4.0679-0.16228-8.0814-1.2724-12.258-0.73604 7.2841-3.451 14.886-5.0486 23.845-4.5796m-38.437 416.44c7.3163 2.6254 14.158 1.6374 21.129-1.7725 4.4728-2.188 9.4337-2.0642 13.577 1.6591 0.8717 0.78326 2.0195 1.8588 3.073 1.0991 3.6506-2.6328 8.4454-3.862 11.185-8.5828-7.1656-3.8494-12.947-9.0802-20.729-11.213-8.811-2.4146-17.456-5.49-26.06-8.5915-11.759-4.2389-23.116-9.4244-34.044-15.515-1.8582-1.0357-3.6353-1.5237-5.6244-0.28284-2.087 1.302-2.0051 3.1627-1.7782 5.2576 1.9935 18.405 6.0075 36.334 11.267 54.102 2.5892 8.7469 7.2814 13.468 15.701 16.647 36.207 13.672 73.624 15.544 111.6 12.414 5.2121-0.42963 10.706-0.49432 16.953-3.1919-22.35-1.7726-43.35-4.005-63.892-9.0167-12.167-2.9683-25.624-3.4673-33.904-15.252-0.27301-0.38849-0.77408-0.62451-1.1862-0.90613-5.0234-3.4327-9.3304-7.9886-15.904-8.8866-2.1551-0.29437-4.1844-2.1846-4.6719-4.7515-0.3624-1.908 1.0442-2.6068 3.3097-3.2171m264.61-421.47c1.4476 3.4376 2.8953 6.8752 4.3635 10.362-1.7941 0.51163-2.5783-0.5795-3.4794-1.1639-9.5147-6.1703-19.383-11.649-30.055-15.578-6.5333-2.4051-13.022-4.984-20.041-5.6753-3.4768-0.34245-5.2755 0.51857-5.8316 4.7103-0.50732 3.8243-0.73724 7.4966-0.40295 11.298 0.36975 4.2042 0.026062 8.3259-2.2845 12.05-1.3959 2.25-0.98572 4.2111 0.39008 6.4742 1.7973 2.9566 4.6198 4.2229 7.452 5.5434 5.3308 2.4855 10.278 5.5559 14.303 9.8391 2.1014 2.2359 4.2216 2.7262 7.0992 2.082 13.783-3.0858 27.593-4.1355 41.369 0.072281 2.3106 0.7057 4.0351 0.25256 5.7397-1.6157 5.0266-5.5093 11.359-9.1222 18.162-12.027 5.1097-2.1821 7.3913-7.7201 5.6746-13.054-2.8856-8.9654-7.5616-16.954-12.855-24.686-2.8326-4.1369-7.0584-5.8941-11.223-7.8794-1.7316-0.8255-4.0482-0.95482-5.0921 0.68092-3.6683 5.7479-7.6829 11.128-12.977 15.503-0.47357 0.39137-0.28436 1.5848-0.31256 3.0634m-125.45 164.83c2.1389-0.30637 4.2716-0.66757 6.4178-0.91031 14.794-1.6735 28.197-6.0727 38.247-18.025 18.356-21.83 27.034-47.033 26.998-75.4-0.019593-15.331-3.4283-20.382-17.633-25.965-9.8103-3.8557-20.048-5.7077-30.482-7.1318-17.759-2.4241-35.577-2.2937-53.347-1.5147-13.578 0.59526-27.116 2.3888-40.274 6.469-11.736 3.6391-17.194 11.775-18.647 23.366-2.5535 20.366-1.0323 40.408 3.8438 60.362 4.6238 18.921 16.175 30.28 34.845 35.152 16.187 4.2239 32.628 3.9395 50.031 3.5982m14.082 272.69c-2.9669-5.2423-3.5762-11.182-5.0883-16.864-0.86328-3.2443-2.4988-6.1249-6.6194-6.0868-4.3192 0.039917-8.6391 0.066772-12.958 0.039856-3.0147-0.018799-5.2228 1.4454-6.287 4.0615-1.0545 2.5923-0.48535 5.3183 1.3573 7.472 1.1707 1.3683 2.6658 2.5019 4.1501 3.55 2.9354 2.0729 4.1076 4.9898 3.2607 8.2682-1.3231 5.1213-2.3208 10.386-4.8835 15.119-2.5932 4.79-1.4722 6.7286 4.1507 7.1443 5.4631 0.40393 10.496-1.6107 15.511-3.1755 10.72-3.3447 17.144-5.6402 7.4065-19.529m45.882-149.93c5.1422-6.3716 7.0743-14.13 9.3199-21.737 0.74048-2.5086-0.7467-3.9965-3.0262-4.0597-5.2881-0.14682-10.589-0.041382-15.878 0.16269-1.7723 0.068421-3.332 1.1287-2.9481 3.2244 1.4573 7.9548 2.5538 16.034 7.7548 22.749 1.5466 1.9971 2.823 1.978 4.7773-0.3393m166.4 22.816c1.5662 4.6753 3.3623 9.2103 7.3409 12.987 7.3417-7.1061 9.9938-15.739 11.82-24.746 0.2583-1.2743-0.52533-2.4722-1.8182-2.5797-6.6862-0.55582-13.383-0.92984-20.177 0.2316 0.56567 4.9985 1.2943 9.2268 2.8345 14.107m-123.44 284.18c0.13336 3.8515 1.1588 7.5318 2.1291 11.226 0.35657 1.3577 0.88397 2.7593 2.42 2.7717 1.7561 0.014283 2.4128-1.5895 2.8787-3.0028 0.41516-1.2595 0.28186-2.4158 1.1351-3.8584 3.8444-6.4993 9.6929-12.675 5.114-21.456-1.5439-2.9607-2.904-6.1803-6.2918-6.2964-3.6114-0.12378-5.0391 3.4002-6.0143 6.357-1.4169 4.2962-1.4396 8.828-1.3707 14.259m204.4-269.56c3.4219-4.8412 6.6811-9.7598 8.1884-16.013-5.8672-0.85004-11.097-1.6687-16.346-2.3417-2.5231-0.32355-5.2239 0.045349-4.5728 3.4266 1.3476 6.9988 3.6467 13.679 8.7614 19.533 1.3883-1.5994 2.4625-2.8369 3.9689-4.6059m-147.56-31.795c-3.157-0.77686-6.3139-1.5537-9.9984-2.4604 0.89038 8.9114 3.2233 16.529 8.8254 23.191 3.96-2.1867 5.6032-5.6838 7.399-8.9786 5.0986-9.3544 5.0575-9.3768-6.226-11.752m-146.16-294.91c0.95505 0.077468 1.7829-0.40718 1.9324-1.2229 0.84183-4.5915 2.7049-8.7909 4.4384-13.085 1.1676-2.8925-0.9891-4.8636-3.7522-5.1354-3.7635-0.37021-7.6127-0.43216-11.373-0.075592-2.4881 0.23595-4.8264 1.9333-2.8383 4.7516 2.3945 3.3945 3.9283 7.7402 8.7152 9.0077 2.7232 0.72102 3.4348 2.8064 2.8775 5.7601m-44.441 259.85c-0.38803 0.21039-1.1355 0.47903-1.1122 0.62277 0.84567 5.219 3.4542 9.6274 6.5316 13.793 0.81073 1.0975 2.0049 1.23 3.1039 0.45953 4.0831-2.8626 7.4921-6.2881 9.577-11.295-5.928-2.5079-11.791-2.4996-18.1-3.5809z"/>
<path d="m775.61 409.5c-1.0358 1.4653-1.8585 2.6547-2.7445 3.9357-8.1261-11.013-3.8684-29.019 7.8713-34.718 2.0435-0.99185 4.1213-1.2083 6.3126-0.79279 18.03 3.4183 35.802 22.285 38.167 40.591 0.20856 1.6142 0.43274 3.306-0.58075 5.4319-3.7434-2.4995-7.3802-4.9776-11.067-7.3791-7.7363-5.0393-16.087-8.6676-25.087-10.774-4.835-1.1314-9.2741-0.79605-12.872 3.7048z"/>
<path d="m205.33 520.64c2.3193 5.1251 1.0567 10.167 1.4604 15.178-6.9251-10.343-11.341-21.393-11.947-33.787 2.7276 6.5469 8.2538 11.458 10.486 18.609z"/>
<path d="m745.35 250.36c-18.679-2.3121-37.063-2.347-55.435-2.8621 19.832-3.0972 39.539-1.9545 59.739 1.5495-1.3625 1.8946-2.7441 1.2046-4.3038 1.3126z"/>
<path d="m434.9 247.64c24.582-2.0007 48.594-1.8557 72.287 4.0016 0.80487 0.19902 1.6076 0.41835 2.393 0.68278 21.602 7.2734 23.632 14.62 21.107 36.407-2.2501 19.42-8.9263 37.382-19.97 53.708-6.8531 10.13-15.603 16.737-27.789 19.427-22.239 4.9107-44.088 5.1133-65.86-2.3334-10.492-3.5887-17.758-10.247-21.751-20.469-8.2549-21.134-9.5851-43.006-6.248-65.22 1.6857-11.221 8.8324-17.924 19.533-21.022 8.4668-2.4518 17.1-4.099 26.297-5.1818m49.102 44.878c-0.57526-0.33441-1.1472-0.67459-1.7263-1.0024-6.5934-3.7323-6.6251-3.7183-8.1715 3.5252-2.3232 10.881-10.065 17.337-20.749 17.303-8.6951-0.027923-16.625-7.0207-18.399-16.68-1.1986-6.528-0.64053-12.994 2.9951-18.789 2.0793-3.3147 1.066-5.2823-2.2782-6.4713-5.0102-1.7814-10.111-3.212-15.354-4.2093-2.8369-0.53964-4.405 0.43472-5.4722 2.9064-3.952 9.1532-5.0886 18.707-2.5035 28.268 4.5348 16.771 17.279 28.014 32.258 29.286 19.234 1.6326 35.211-7.0721 43.035-23.447 2.9439-6.1614 2.8801-6.3784-3.6346-10.689m-26.119-5.6609c1.1405 1.6887 2.2791 3.5043 4.6834 1.861 1.1201-0.76559 1.9745-1.8604 1.5152-3.3426-0.46448-1.4991-1.4323-2.786-3.123-2.6883-2.0679 0.11948-3.2279 1.4236-3.0755 4.1699z"/>
</svg>