<svg version="1.1" id="Layer_1" xmlns="http://www.w3.org/2000/svg" xmlns:xlink="http://www.w3.org/1999/xlink" x="0px" y="0px"
	 width="100%" viewBox="0 0 1024 1024" enable-background="new 0 0 1024 1024" xml:space="preserve">
<path fill="#000000" opacity="1.000000" stroke="none" 
	d="
M915.946045,497.173309 
	C910.324768,498.250458 908.524109,501.690796 907.223389,506.706970 
	C891.061951,569.033691 849.977661,605.778625 788.268372,619.917480 
	C762.900269,625.729858 737.346558,622.297302 712.225403,615.937744 
	C693.492126,611.195251 675.574951,603.872681 657.000000,598.728149 
	C627.528625,590.565857 597.609253,587.208923 567.245544,593.361450 
	C554.429749,595.958191 543.586365,602.197388 535.414429,612.572327 
	C528.415771,621.457703 528.390320,631.288696 535.619019,639.992859 
	C543.032288,648.919250 552.718567,655.301208 561.922424,662.153137 
	C583.027283,677.864929 604.557861,692.991394 624.252686,710.552124 
	C638.666626,723.404114 650.184326,738.184082 657.738525,755.990479 
	C658.788025,758.464294 659.505066,760.790833 658.339417,763.613159 
	C647.422546,790.046143 635.014465,815.612427 615.608459,837.077576 
	C598.184082,856.351013 577.958557,872.321899 556.483154,886.815369 
	C541.258118,897.090576 525.240906,905.903625 508.724579,913.907227 
	C504.072510,916.161621 500.272247,916.214111 495.691223,913.720947 
	C467.458038,898.355469 438.976105,883.444763 410.809753,867.959290 
	C378.833893,850.379456 346.102936,834.283081 313.564850,817.812134 
	C267.055206,794.268677 220.424683,770.961487 173.716797,747.813660 
	C155.964981,739.016052 137.854141,730.943115 119.912460,722.528076 
	C118.120674,721.687744 116.367493,720.765015 114.472321,719.818604 
	C114.982368,716.805237 117.403893,715.621277 119.169060,714.081604 
	C130.604340,704.106873 142.465454,694.662598 155.437271,686.739929 
	C159.066269,684.523438 159.921371,682.344177 158.238525,678.227234 
	C156.176437,673.182373 155.167282,667.712708 153.598099,662.458008 
	C152.957489,660.312866 152.923096,657.869995 150.922714,655.860352 
	C146.765717,659.223389 146.403137,664.865112 142.292816,668.786743 
	C109.625786,603.609131 109.548172,537.502136 134.334244,469.228973 
	C124.661736,471.177765 118.606644,477.388245 110.194130,480.439453 
	C116.992706,409.968353 153.119537,354.990570 198.348846,304.725739 
	C197.065109,302.599060 195.452148,303.301117 194.151825,303.639648 
	C178.184830,307.796997 164.474014,315.119843 155.746780,330.012787 
	C150.615433,338.769379 144.945572,347.220978 139.286407,355.654388 
	C134.480728,362.815918 126.732399,364.537994 118.598732,360.644043 
	C112.895996,357.913849 110.058861,349.742310 112.570328,342.390472 
	C117.457443,328.084290 125.611038,315.461609 133.409180,302.666534 
	C140.688522,290.722717 152.285812,283.528961 163.432327,276.028412 
	C187.616074,259.754974 214.208572,248.196396 241.352249,237.964188 
	C247.132721,235.785156 250.767746,232.540543 253.703903,227.368301 
	C264.399048,208.528046 275.333923,189.758072 290.431763,174.000504 
	C307.226624,156.471756 326.607605,143.304245 351.258087,139.077866 
	C371.969421,135.526886 391.633728,139.471756 410.992371,146.158783 
	C417.581940,148.435013 424.016663,151.299774 430.243378,154.447189 
	C436.643005,157.682037 443.045563,157.672165 450.023804,157.204422 
	C464.437897,156.238312 478.852173,155.038879 493.400055,156.259674 
	C505.675476,157.289764 517.818665,158.938477 529.919128,161.043823 
	C532.209656,161.442352 533.761597,160.583923 535.473999,159.573715 
	C550.040283,150.980667 565.705627,145.472015 582.617859,144.786362 
	C613.502136,143.534256 635.573425,158.504364 651.544800,183.825912 
	C657.977417,194.024445 662.503906,205.146774 666.210449,216.568146 
	C667.411682,220.269653 669.176575,220.991898 672.809692,220.350372 
	C692.049622,216.953201 711.375549,216.208725 730.938110,217.363647 
	C753.058716,218.669571 774.858704,221.829285 796.643250,225.548889 
	C801.267944,226.338547 803.329468,227.984268 803.068848,232.894379 
	C802.716125,239.541367 802.990295,246.220612 802.950378,252.885757 
	C802.937317,255.061539 803.046448,257.653381 800.411621,258.303223 
	C789.746338,260.933777 788.164917,268.961060 787.344604,278.272827 
	C785.580383,298.301086 780.128235,317.450806 771.911133,335.806976 
	C771.378296,336.997314 771.015137,338.263611 770.484253,339.741821 
	C774.425110,340.220795 777.488831,338.170013 780.825073,337.482574 
	C793.129333,334.946960 805.478516,333.884735 817.998291,335.386963 
	C823.120667,336.001556 828.295654,335.455780 833.446777,336.276428 
	C836.323730,336.734711 838.646118,334.309570 841.085999,332.957184 
	C850.538818,327.717743 860.308350,324.638824 871.425659,324.450623 
	C894.765076,324.055603 921.638733,340.873932 928.278931,369.724915 
	C929.622559,375.563232 930.696045,381.472107 930.323547,387.494507 
	C930.091614,391.243805 931.334229,394.055237 933.873413,396.880127 
	C952.901062,418.048950 956.781189,449.179565 943.215088,472.465820 
	C936.852478,483.387451 927.666626,491.471863 915.946045,497.173309 
M607.145325,557.325623 
	C620.179688,558.951233 633.166992,560.828003 645.977112,563.825806 
	C669.336914,569.292358 691.743164,577.954163 714.878357,584.201172 
	C747.466980,593.000732 779.638000,594.055664 811.048706,579.880798 
	C846.011047,564.103149 869.438171,538.107117 879.494812,500.729187 
	C880.309509,497.701141 881.795349,494.441559 879.910034,490.885254 
	C866.857971,491.953613 854.941345,496.624481 843.110413,501.527710 
	C832.343872,505.989838 821.656433,510.786041 810.144226,512.889832 
	C806.085510,513.631592 804.301819,515.467773 802.698120,518.935791 
	C797.173889,530.882507 788.876587,540.471313 777.244690,546.908691 
	C773.690491,548.875671 770.196228,550.406982 766.157837,547.323242 
	C754.253540,538.233154 745.748718,526.886963 741.820129,512.298889 
	C741.329651,510.477631 741.721863,507.734039 739.092285,507.594910 
	C736.759460,507.471497 736.844543,510.099030 736.205322,511.684021 
	C730.866394,524.923218 722.437683,535.491943 710.024841,542.829468 
	C704.023987,546.376709 698.753540,545.689819 693.487793,541.399902 
	C683.151611,532.979187 677.079834,521.899475 673.144287,509.438232 
	C672.355408,506.940277 672.193481,504.132111 668.402283,504.086365 
	C664.839050,504.043427 662.132690,504.514099 660.379761,508.318268 
	C655.937195,517.958862 648.780701,525.315430 639.810791,530.911194 
	C631.082031,536.356384 626.180054,536.114624 618.111877,529.848633 
	C605.882019,520.350586 598.305359,507.998322 595.641968,492.720551 
	C595.087341,489.539124 593.824158,487.262177 590.663025,485.883087 
	C583.184143,482.620239 575.835083,479.060760 568.414978,475.661713 
	C566.150635,474.624420 563.832092,473.690033 560.758118,474.102478 
	C557.040771,485.316833 551.304749,495.436462 541.849792,503.215607 
	C527.453308,515.060425 522.721985,514.716614 509.663727,500.048126 
	C509.005463,499.308716 508.516479,498.412781 507.985779,497.566467 
	C503.151855,489.857666 499.821838,481.594330 498.464752,472.541412 
	C498.190094,470.709137 498.377258,467.816010 495.922394,467.636047 
	C491.644775,467.322357 487.238190,466.030151 483.478302,470.304840 
	C475.769592,479.068878 466.199707,485.285187 455.186829,489.368958 
	C447.034302,492.392090 439.635254,491.656097 432.466888,486.657898 
	C426.398468,482.426697 420.383240,477.901276 416.429413,471.778687 
	C411.334930,463.889862 404.320923,459.263947 395.932465,456.052277 
	C395.312683,455.815002 394.748566,455.435028 394.133575,455.182190 
	C380.557709,449.600281 368.782928,440.492371 354.901093,435.441772 
	C333.688202,427.723969 313.517059,427.701111 294.915985,442.257629 
	C289.722473,446.321930 285.395416,451.261261 280.874847,456.121582 
	C281.421143,433.911591 290.260559,416.047668 309.541748,404.693085 
	C330.642914,392.266754 352.354065,394.965271 373.734619,404.630432 
	C386.388672,410.350739 397.625824,418.526672 409.301300,425.896759 
	C428.310120,437.895905 448.560394,444.235199 471.293671,442.888977 
	C487.275238,441.942596 502.938751,438.875854 518.798279,437.249146 
	C533.640076,435.726776 548.403931,436.175476 562.749878,440.817657 
	C581.070129,446.745880 597.923401,455.937317 614.768616,465.012787 
	C630.937622,473.723938 647.604309,479.310669 666.296082,477.802429 
	C674.458679,477.143768 682.399048,475.433746 690.410706,474.070618 
	C703.432190,471.855072 716.440125,470.409729 729.581543,472.737640 
	C739.834656,474.553955 749.396179,478.470184 758.678894,483.003479 
	C774.447083,490.704041 790.392883,491.789673 807.083862,485.994690 
	C818.595276,481.997986 829.583313,476.813721 840.881653,472.348297 
	C861.544556,464.181702 882.530762,459.551758 904.740112,464.742188 
	C912.609619,466.581268 913.718079,466.120605 917.707825,459.085388 
	C918.606567,457.500458 919.434326,455.830231 919.986938,454.100922 
	C925.887207,435.635468 921.253540,419.647552 908.160706,405.901642 
	C905.292114,402.889984 903.002869,399.986664 902.777344,395.674835 
	C902.595215,392.193909 902.081360,388.727173 901.642273,385.263367 
	C900.001404,372.320374 895.086853,361.308899 883.517090,354.086823 
	C880.164856,351.994263 875.940063,350.472351 872.857300,351.372406 
	C868.313721,352.698914 863.591858,353.777130 859.114441,355.623383 
	C849.640259,359.529968 847.281372,364.829681 851.639954,373.830444 
	C855.076843,380.928040 857.945190,388.232422 859.461548,396.289276 
	C857.321594,395.969604 856.974731,394.484100 856.189392,393.510345 
	C838.676086,371.796600 816.766479,358.854034 788.099609,360.373993 
	C765.667419,361.563416 748.821045,372.048126 741.880737,392.936005 
	C741.029480,395.498199 740.509766,398.385864 737.884705,400.925629 
	C736.057739,396.264557 736.759155,392.053833 737.112915,387.823425 
	C737.335510,385.161804 740.157776,382.040924 737.365906,379.942200 
	C734.466309,377.762482 731.320618,380.205231 728.536011,381.561340 
	C726.299622,382.650482 724.245789,384.114075 722.109680,385.409454 
	C718.762512,387.439301 716.213257,390.647614 712.298218,392.365021 
	C710.988953,387.934723 713.080627,384.568665 714.716858,381.229889 
	C718.668274,373.166718 724.869385,366.845642 731.246643,360.711090 
	C732.761719,359.253693 733.919434,357.922516 733.409058,355.562134 
	C732.838623,352.924011 730.801758,353.504456 729.104187,353.180115 
	C713.267395,350.154480 697.442261,347.164673 681.907166,342.672607 
	C675.044250,340.688110 668.247131,337.818359 660.650208,338.647064 
	C657.782898,338.959839 654.739685,338.682343 651.748901,338.881348 
	C642.794800,339.477020 636.742798,334.413300 631.899353,327.721436 
	C628.825439,323.474518 626.449829,318.648315 623.403931,314.462372 
	C619.853394,309.582886 616.061768,304.820557 614.103821,299.208466 
	C612.351013,294.184540 609.020752,292.704132 604.476746,292.120026 
	C601.972717,291.798157 599.513855,291.929352 597.024597,292.256195 
	C591.281433,293.010254 588.782043,295.678589 588.897949,301.396210 
	C588.945190,303.729340 588.572754,305.750946 586.451782,307.004272 
	C584.244568,308.308563 581.556702,307.677673 580.489441,306.065430 
	C577.474182,301.510406 573.387634,302.704315 569.635010,303.644897 
	C563.832031,305.099426 558.640381,308.273346 556.490784,314.034058 
	C551.706421,326.855835 546.230103,339.304993 539.327332,351.126678 
	C527.748779,370.955933 511.537903,384.759552 488.474304,388.826996 
	C465.000305,392.966797 441.475616,392.876953 418.100128,387.592041 
	C393.762421,382.089569 374.543976,370.349609 366.216461,345.233063 
	C365.803436,343.987274 365.214264,342.693542 363.670624,342.398041 
	C358.130005,341.337280 356.096405,336.929382 354.068878,332.459473 
	C349.670380,322.762451 345.176392,313.108521 340.814606,303.395142 
	C338.947723,299.237823 335.576874,296.868042 331.479065,295.708649 
	C325.017639,293.880493 318.384521,293.344025 311.704987,294.560120 
	C310.042450,294.862823 308.393066,295.450867 306.356445,294.430939 
	C311.033051,291.372345 316.681061,294.827789 320.832947,290.538391 
	C324.699066,286.544220 326.889496,282.710815 324.671265,277.927887 
	C317.691803,273.709778 310.929413,275.423401 304.065033,276.766510 
	C292.137634,279.100342 280.295258,281.776398 268.611389,285.095734 
	C258.218323,288.048309 247.259140,289.526672 239.157135,298.084869 
	C232.044952,305.597473 229.814026,307.271210 238.059128,312.233398 
	C238.221146,312.330933 238.164200,312.792267 238.223175,313.172699 
	C237.702179,313.521362 237.188889,313.971161 236.594650,314.245758 
	C231.909882,316.410614 227.256393,318.654236 222.494644,320.636658 
	C220.088516,321.638397 218.166443,323.041382 216.677109,325.133881 
	C197.227814,352.459839 179.513153,380.803436 166.157562,411.678589 
	C165.101883,414.119049 162.292847,417.289337 164.680984,419.358337 
	C167.090744,421.446045 169.512726,417.675934 172.039062,416.766388 
	C176.121048,415.296814 179.240601,411.682648 183.635391,410.745239 
	C184.872955,413.442474 183.748764,415.236450 183.059845,417.062561 
	C166.015930,462.239838 157.533569,508.925262 158.011368,557.252014 
	C158.066010,562.779236 160.577759,566.682495 163.201981,570.290588 
	C170.525803,569.769775 172.705872,562.622009 178.659561,559.236938 
	C178.799591,561.828796 179.106613,563.469849 178.940109,565.061401 
	C177.457397,579.234009 178.628693,593.310608 180.256256,607.384888 
	C185.383469,651.722168 204.655807,688.127869 240.251678,715.653625 
	C268.824005,737.748230 300.286743,755.209229 331.319305,773.384338 
	C335.270172,775.698303 339.375549,776.001648 343.771393,774.987610 
	C350.358917,773.467712 351.925781,768.724365 347.260193,763.685303 
	C335.379517,750.853638 322.950134,738.549683 311.391754,725.398010 
	C280.543640,690.297485 260.829926,649.859863 251.394547,604.133789 
	C249.763824,596.230896 251.225433,587.275146 245.019958,580.519165 
	C244.686661,580.156250 244.687225,579.163086 244.926804,578.646057 
	C248.646332,570.618591 245.954742,562.257629 246.269272,554.059448 
	C246.421524,550.091248 244.498260,547.272217 241.722260,544.536133 
	C224.733948,527.792297 211.511139,508.644318 204.971710,485.396576 
	C203.126862,478.838165 202.490814,471.735016 199.538025,465.751373 
	C196.663925,459.927246 195.703049,454.252991 197.304306,448.537689 
	C198.701584,443.550476 198.985870,438.524353 199.935471,433.551422 
	C203.851852,413.041718 211.650589,394.004333 222.718552,376.341705 
	C227.317444,369.002563 232.085876,361.712311 239.013596,355.401794 
	C239.013596,356.486084 239.105133,356.839691 238.996140,357.113464 
	C238.689377,357.883911 238.307205,358.625000 237.942383,359.371613 
	C224.163696,387.568756 219.085098,417.168915 224.623627,448.163239 
	C229.497040,475.435425 242.796692,498.459137 262.556549,517.625244 
	C298.404480,552.395935 342.824615,566.676697 391.417206,570.681702 
	C408.887543,572.121521 426.356354,571.939575 443.815460,570.631714 
	C456.747498,569.663025 469.680725,568.651672 482.582581,567.353210 
	C496.138062,565.988892 509.652710,564.222839 523.192810,562.699890 
	C539.326050,560.885193 555.467285,559.142273 571.626770,557.365906 
	C570.257996,551.849121 565.081970,553.449280 561.163635,551.824097 
	C569.019226,549.994507 577.544861,551.982666 583.024536,556.859558 
	C583.326355,554.213867 584.597900,553.687256 587.205566,553.647278 
	C593.871338,553.544922 599.894470,556.278687 607.145325,557.325623 
M450.421539,838.095154 
	C464.583557,854.249084 478.385437,870.719116 493.184662,886.313965 
	C496.161621,889.450867 498.510223,889.606323 502.132507,887.358887 
	C525.114746,873.099915 545.022705,855.309448 563.132568,835.341064 
	C566.663513,831.447815 568.701660,827.458862 568.772400,822.069519 
	C568.998474,804.851501 569.445007,787.730164 559.883362,772.192139 
	C557.606689,768.492310 555.889465,767.496643 551.730591,769.325928 
	C531.363647,778.284546 509.748322,782.172791 487.712158,783.137451 
	C458.097961,784.433716 428.952850,780.634338 400.332367,772.895813 
	C398.474640,772.393494 396.585052,771.543640 394.085999,773.581421 
	C412.818909,795.027832 431.391144,816.290283 450.421539,838.095154 
M367.764862,744.824463 
	C368.908569,745.482605 369.988007,746.309509 371.205750,746.773132 
	C385.103088,752.063477 399.551544,755.410156 414.188202,757.532227 
	C434.951782,760.542603 455.821350,761.658691 476.860474,759.868896 
	C495.890106,758.250061 514.351501,754.564941 532.181458,747.795776 
	C541.434937,744.282593 541.539917,743.262573 534.995483,735.728333 
	C521.429871,720.111084 505.403290,707.485718 487.746674,696.881592 
	C484.585602,694.983032 481.509644,692.479065 477.141418,693.498352 
	C465.466766,696.222717 453.625061,697.698730 441.646393,698.626465 
	C423.114014,700.061768 404.710114,698.927612 386.361542,696.828857 
	C366.510132,694.558228 347.026306,690.266174 327.868225,684.520630 
	C326.363098,684.069275 324.253784,682.623596 322.886414,684.817932 
	C321.764526,686.618225 323.424774,687.967712 324.272217,689.280396 
	C336.946777,708.914124 350.933075,727.529785 367.764862,744.824463 
M750.604370,326.103973 
	C753.334167,322.085388 755.426819,317.738739 757.041931,313.175720 
	C763.656982,294.487000 767.375854,275.399506 764.647888,255.482758 
	C763.729919,248.780975 760.549805,243.902130 753.404358,242.639923 
	C748.667725,241.803207 743.928101,240.851700 739.147522,240.418900 
	C721.556824,238.826263 703.939941,238.553741 686.345642,240.353699 
	C669.938477,242.032196 654.231506,245.870621 640.716980,256.029816 
	C636.156494,259.458038 633.150024,263.818604 632.071106,269.532440 
	C630.254150,279.155518 631.429871,288.409088 635.393921,297.276917 
	C636.988342,300.843872 638.950684,304.321899 643.563171,306.585724 
	C638.531250,293.468353 633.846741,280.757080 641.096863,268.055450 
	C648.364563,255.322998 661.440674,252.090698 674.854248,249.096725 
	C675.445435,251.310562 675.990723,252.868317 676.269348,254.472412 
	C678.590820,267.835052 677.462585,281.009766 673.366272,293.849426 
	C671.940552,298.318115 672.974548,300.808807 676.754639,303.356842 
	C695.716370,316.138123 716.280945,325.169128 738.362305,331.029877 
	C743.774170,332.466309 747.683716,332.084137 750.604370,326.103973 
M368.286560,210.747330 
	C379.488831,212.376068 390.530365,214.821564 401.239471,218.428970 
	C404.892792,219.659607 408.409485,220.021896 411.995575,219.575012 
	C427.566864,217.634628 443.202759,217.567337 458.843384,217.742676 
	C462.989227,217.789139 466.584808,216.981339 470.054871,214.574661 
	C475.125641,211.057785 475.226898,208.550873 469.806152,205.577560 
	C462.515045,201.578354 455.214752,197.589371 447.822723,193.781784 
	C426.782166,182.943939 405.291473,173.247787 381.817474,168.859222 
	C362.357513,165.221130 344.093689,167.851379 327.561615,179.410141 
	C315.538452,187.816406 305.883087,198.521378 297.368530,210.338760 
	C293.184753,216.145401 289.137787,222.049210 285.934967,228.472717 
	C284.184235,231.983902 282.873108,235.903732 285.349457,239.293991 
	C287.959656,242.867493 291.670807,243.560577 296.265656,242.068085 
	C302.559113,240.023849 309.348389,239.463394 315.577881,237.277374 
	C321.279877,235.276520 329.047333,237.188278 332.133057,229.467072 
	C332.263519,229.140549 333.366669,228.956726 333.929535,229.085968 
	C342.242981,230.994751 350.052582,227.931793 357.981781,226.513794 
	C364.258698,225.391296 364.944244,222.482269 360.700592,217.732117 
	C359.592316,216.491577 358.239960,216.124374 356.699890,216.062927 
	C352.631989,215.900650 348.618530,214.790497 344.441986,215.326889 
	C351.726105,211.875931 359.327576,210.278305 368.286560,210.747330 
M329.849701,627.189758 
	C337.165985,629.815125 344.007965,628.827148 350.978729,625.417236 
	C355.451538,623.229187 360.412445,623.353027 364.556183,627.076355 
	C365.427887,627.859619 366.575714,628.935120 367.629150,628.175415 
	C371.279755,625.542603 376.074585,624.313416 378.814301,619.592651 
	C371.648712,615.743225 365.867706,610.512451 358.085144,608.379761 
	C349.274109,605.965149 340.629211,602.889771 332.025024,599.788269 
	C320.265533,595.549377 308.908997,590.363831 297.981171,584.273132 
	C296.122925,583.237427 294.345856,582.749390 292.356812,583.990295 
	C290.269806,585.292297 290.351715,587.153015 290.578613,589.247925 
	C292.572083,607.652954 296.586121,625.581726 301.845764,643.350281 
	C304.434937,652.097229 309.127167,656.818237 317.547180,659.997742 
	C353.754425,673.670227 391.171478,675.542175 429.145233,672.411865 
	C434.357330,671.982239 439.850769,671.917542 446.097931,669.219971 
	C423.747681,667.447327 402.748077,665.214966 382.205841,660.203308 
	C370.039246,657.235046 356.582275,656.735962 348.301849,644.951050 
	C348.028839,644.562561 347.527771,644.326538 347.115631,644.044922 
	C342.092224,640.612244 337.785278,636.056274 331.211975,635.158325 
	C329.056854,634.863953 327.027557,632.973694 326.540039,630.406860 
	C326.177643,628.498901 327.584229,627.800110 329.849701,627.189758 
M594.461121,205.719879 
	C595.908752,209.157455 597.356384,212.595047 598.824585,216.081512 
	C597.030457,216.593140 596.246277,215.502014 595.345154,214.917633 
	C585.830444,208.747345 575.962341,203.268539 565.290588,199.339920 
	C558.757263,196.934814 552.268127,194.355911 545.249939,193.664627 
	C541.773132,193.322174 539.974487,194.183197 539.418335,198.374893 
	C538.911011,202.199188 538.681091,205.871445 539.015381,209.672806 
	C539.385132,213.877045 539.041443,217.998734 536.730896,221.722992 
	C535.334961,223.973007 535.745178,225.934113 537.120972,228.197205 
	C538.918274,231.153839 541.740784,232.420074 544.572937,233.740631 
	C549.903748,236.226166 554.850708,239.296524 558.876221,243.579727 
	C560.977600,245.815598 563.097839,246.305969 565.975403,245.661697 
	C579.757935,242.575882 593.568298,241.526215 607.344849,245.733978 
	C609.655457,246.439682 611.379944,245.986542 613.084595,244.118240 
	C618.111206,238.608948 624.443604,234.996002 631.246277,232.090912 
	C636.356018,229.908783 638.637573,224.370850 636.920898,219.037323 
	C634.035339,210.071945 629.359253,202.082840 624.065735,194.351746 
	C621.233093,190.214813 617.007385,188.457626 612.843140,186.472321 
	C611.111572,185.646820 608.794983,185.517502 607.751038,187.153244 
	C604.082703,192.901154 600.068176,198.280899 594.773682,202.656525 
	C594.300110,203.047897 594.489319,204.241302 594.461121,205.719879 
M469.010651,370.548767 
	C471.149567,370.242401 473.282288,369.881195 475.428406,369.638458 
	C490.222351,367.964935 503.625275,363.565796 513.675293,351.613617 
	C532.031372,329.783417 540.709229,304.580505 540.672974,276.213531 
	C540.653381,260.882690 537.244690,255.831467 523.039917,250.248688 
	C513.229614,246.393005 502.991425,244.540955 492.558258,243.116867 
	C474.798920,240.692734 456.981445,240.823151 439.211304,241.602173 
	C425.632935,242.197433 412.095703,243.990982 398.937714,248.071136 
	C387.202087,251.710205 381.743896,259.846558 380.290649,271.437073 
	C377.737122,291.802795 379.258301,311.844574 384.134430,331.798706 
	C388.758209,350.720093 400.309570,362.078766 418.979706,366.950531 
	C435.166992,371.174408 451.607605,370.890076 469.010651,370.548767 
M483.092285,643.235413 
	C480.125397,637.993103 479.516083,632.053528 478.003998,626.371033 
	C477.140717,623.126770 475.505188,620.246155 471.384644,620.284241 
	C467.065399,620.324158 462.745544,620.351013 458.426300,620.324097 
	C455.411560,620.305298 453.203522,621.769470 452.139313,624.385559 
	C451.084778,626.977905 451.653961,629.703857 453.496582,631.857605 
	C454.667236,633.225952 456.162415,634.359497 457.646698,635.407654 
	C460.582123,637.480530 461.754303,640.397461 460.907379,643.675842 
	C459.584320,648.797119 458.586578,654.061584 456.023865,658.795227 
	C453.430634,663.585205 454.551697,665.523804 460.174591,665.939514 
	C465.637726,666.343445 470.670532,664.328857 475.685791,662.764038 
	C486.405731,659.419312 492.830261,657.123840 483.092285,643.235413 
M528.974243,493.304260 
	C534.116455,486.932709 536.048523,479.174591 538.294189,471.566803 
	C539.034668,469.058197 537.547485,467.570312 535.267944,467.507080 
	C529.979797,467.360260 524.678467,467.465698 519.390198,467.669769 
	C517.617920,467.738190 516.058228,468.798492 516.442139,470.894165 
	C517.899414,478.848999 518.995972,486.927795 524.196899,493.643555 
	C525.743530,495.640656 527.019897,495.621552 528.974243,493.304260 
M695.379211,516.119873 
	C696.945435,520.795166 698.741516,525.330200 702.720154,529.107300 
	C710.061829,522.001160 712.713989,513.368713 714.539856,504.360992 
	C714.798157,503.086700 714.014526,501.888763 712.721680,501.781311 
	C706.035461,501.225494 699.338562,500.851471 692.544678,502.012909 
	C693.110352,507.011383 693.838989,511.239746 695.379211,516.119873 
M571.938354,800.301941 
	C572.071716,804.153442 573.097168,807.833740 574.067444,811.527649 
	C574.424011,812.885376 574.951416,814.286987 576.487427,814.299377 
	C578.243530,814.313660 578.900208,812.709839 579.366089,811.296570 
	C579.781250,810.037109 579.647949,808.880737 580.501221,807.438171 
	C584.345642,800.938843 590.194092,794.763550 585.615173,785.982300 
	C584.071289,783.021606 582.711182,779.802002 579.323364,779.685913 
	C575.711914,779.562134 574.284241,783.086121 573.309021,786.042908 
	C571.892090,790.339111 571.869446,794.870911 571.938354,800.301941 
M776.339966,530.738403 
	C779.761902,525.897156 783.021057,520.978638 784.528320,514.725891 
	C778.661072,513.875854 773.431152,513.057190 768.182495,512.384216 
	C765.659363,512.060669 762.958557,512.429565 763.609680,515.810852 
	C764.957275,522.809631 767.256348,529.490051 772.371094,535.344299 
	C773.759399,533.744873 774.833557,532.507446 776.339966,530.738403 
M628.778748,498.943573 
	C625.621765,498.166718 622.464844,497.389862 618.780334,496.483185 
	C619.670715,505.394562 622.003662,513.012329 627.605713,519.674072 
	C631.565735,517.487366 633.208923,513.990234 635.004700,510.695496 
	C640.103271,501.341064 640.062195,501.318665 628.778748,498.943573 
M482.614105,204.031754 
	C483.569153,204.109222 484.397003,203.624573 484.546539,202.808838 
	C485.388367,198.217361 487.251434,194.017899 488.984894,189.723404 
	C490.152466,186.830872 487.995789,184.859818 485.232697,184.588013 
	C481.469177,184.217804 477.619995,184.155853 473.859772,184.512421 
	C471.371674,184.748367 469.033417,186.445740 471.021423,189.264008 
	C473.415955,192.658554 474.949738,197.004257 479.736633,198.271667 
	C482.459869,198.992691 483.171448,201.078018 482.614105,204.031754 
M438.173248,463.883057 
	C437.785217,464.093445 437.037750,464.362091 437.061066,464.505829 
	C437.906738,469.724823 440.515289,474.133270 443.592621,478.299042 
	C444.403351,479.396545 445.597565,479.528992 446.696472,478.758575 
	C450.779602,475.895935 454.188538,472.470459 456.273438,467.463959 
	C450.345459,464.956055 444.482513,464.964386 438.173248,463.883057 
z"/>
<path fill="#000000" opacity="1.000000" stroke="none" 
	d="
M775.609375,409.497864 
	C774.573608,410.963135 773.750916,412.152527 772.864868,413.433533 
	C764.738770,402.420410 768.996460,384.414093 780.736145,378.715790 
	C782.779602,377.723938 784.857422,377.507538 787.048767,377.923004 
	C805.079102,381.341339 822.850769,400.207703 825.216064,418.514038 
	C825.424622,420.128265 825.648804,421.820038 824.635315,423.945892 
	C820.891907,421.446411 817.255127,418.968262 813.568420,416.566772 
	C805.832153,411.527496 797.481384,407.899139 788.481384,405.793091 
	C783.646362,404.661682 779.207275,404.997040 775.609375,409.497864 
z"/>
<path fill="#000000" opacity="1.000000" stroke="none" 
	d="
M205.325134,520.640503 
	C207.644424,525.765625 206.381821,530.807068 206.785507,535.818359 
	C199.860413,525.474915 195.444351,514.425415 194.838638,502.031311 
	C197.566208,508.578217 203.092422,513.489197 205.325134,520.640503 
z"/>
<path fill="#000000" opacity="1.000000" stroke="none" 
	d="
M745.347534,250.364441 
	C726.668579,248.052307 708.284607,248.017426 689.912109,247.502319 
	C709.743713,244.405106 729.450684,245.547821 749.651306,249.051865 
	C748.288757,250.946442 746.907227,250.256424 745.347534,250.364441 
z"/>
<path fill="#000000" opacity="1.000000" stroke="none" 
	d="
M434.900024,247.643417 
	C459.482513,245.642700 483.494476,245.787704 507.186676,251.645020 
	C507.991547,251.844040 508.794312,252.063370 509.579681,252.327805 
	C531.181580,259.601196 533.211365,266.948242 530.687073,288.734772 
	C528.436951,308.154999 521.760803,326.117126 510.716888,342.442352 
	C503.863739,352.572662 495.113434,359.179138 482.928284,361.869720 
	C460.689056,366.780396 438.839874,366.983002 417.068146,359.536316 
	C406.575745,355.947571 399.310547,349.289642 395.317566,339.067108 
	C387.062622,317.933350 385.732422,296.061035 389.069519,273.847595 
	C390.755219,262.626953 397.901917,255.923920 408.602600,252.825226 
	C417.069427,250.373398 425.702820,248.726257 434.900024,247.643417 
M484.001740,292.521118 
	C483.426483,292.186707 482.854492,291.846527 482.275482,291.518768 
	C475.682037,287.786438 475.650421,287.800507 474.103943,295.043976 
	C471.780762,305.925323 464.039276,312.380890 453.354767,312.346588 
	C444.659668,312.318665 436.729553,305.325897 434.956085,295.667084 
	C433.757477,289.139069 434.315552,282.673340 437.951172,276.877716 
	C440.030487,273.563049 439.017212,271.595428 435.672943,270.406372 
	C430.662781,268.624939 425.561798,267.194397 420.319366,266.197113 
	C417.482422,265.657471 415.914368,266.631836 414.847168,269.103516 
	C410.895172,278.256744 409.758545,287.810608 412.343628,297.371185 
	C416.878387,314.142548 429.622406,325.385681 444.601562,326.657196 
	C463.835815,328.289825 479.812439,319.585052 487.636292,303.209839 
	C490.580170,297.048401 490.516418,296.831390 484.001740,292.521118 
M457.882477,286.860229 
	C459.023010,288.548889 460.161560,290.364563 462.565857,288.721252 
	C463.686005,287.955658 464.540344,286.860901 464.081024,285.378632 
	C463.616547,283.879578 462.648773,282.592682 460.958008,282.690369 
	C458.890137,282.809845 457.730103,284.114014 457.882477,286.860229 
z"/>
</svg>